<svg width="254" height="37" viewBox="0 0 254 37" fill="none" xmlns="http://www.w3.org/2000/svg">
<path d="M1.53616 37C1.13098 37 0.965219 36.8158 1.03889 36.4475L6.56414 1.36212C6.63781 0.993772 6.8404 0.809597 7.17192 0.809597H10.7081C11.1133 0.809597 11.279 0.993772 11.2054 1.36212L6.23263 32.7456H21.0956C21.5007 32.7456 21.6665 32.9481 21.5928 33.3533L21.0956 36.4475C21.0219 36.8158 20.8193 37 20.4878 37H1.53616ZM27.2739 37C26.8687 37 26.703 36.8158 26.7766 36.4475L32.3019 1.36212C32.3756 0.993772 32.5782 0.809597 32.9097 0.809597H52.1928C52.377 0.809597 52.5059 0.86485 52.5796 0.975355C52.6901 1.04902 52.7269 1.17795 52.6901 1.36212L52.1928 4.51152C52.156 4.65886 52.1007 4.78778 52.027 4.89828C51.9534 5.00879 51.8244 5.06404 51.6403 5.06404H36.3353L34.512 16.5566H48.3804C48.7856 16.5566 48.9513 16.7407 48.8776 17.1091L48.4356 20.0927C48.362 20.4611 48.1778 20.6453 47.8831 20.6453H33.849L31.9704 32.7456H47.1096C47.5147 32.7456 47.6805 32.9297 47.6068 33.2981L47.1096 36.4475C47.0359 36.8158 46.8517 37 46.557 37H27.2739ZM56.1412 37C55.736 37 55.5703 36.8158 55.6439 36.4475L61.1692 1.36212C61.2428 0.993772 61.4454 0.809597 61.777 0.809597H67.7442C67.9284 0.809597 68.0573 0.86485 68.131 0.975355C68.2415 1.04902 68.3152 1.17795 68.352 1.36212L75.6453 23.3526C76.1242 24.7892 76.5846 26.2258 77.0267 27.6623C77.4687 29.0621 77.9291 30.4802 78.408 31.9168H78.4632C78.6106 30.9591 78.7579 30.0198 78.9052 29.0989C79.0526 28.1412 79.1999 27.2019 79.3473 26.281C79.4946 25.3233 79.6419 24.384 79.7893 23.4631L83.2702 1.36212C83.3439 0.993772 83.5464 0.809597 83.878 0.809597H87.3589C87.7641 0.809597 87.9298 0.993772 87.8561 1.36212L82.2756 36.4475C82.202 36.8158 82.0178 37 81.7231 37H75.9769C75.6085 37 75.3691 36.8158 75.2586 36.4475L68.0757 14.9542C67.5969 13.444 67.0996 11.9338 66.5839 10.4235C66.1051 8.9133 65.6078 7.40307 65.0921 5.89283H65.0369C64.8527 7.03472 64.6685 8.15818 64.4843 9.26323C64.337 10.3314 64.1712 11.4181 63.9871 12.5231C63.8029 13.5913 63.6187 14.678 63.4345 15.783L60.1746 36.4475C60.101 36.8158 59.9168 37 59.6221 37H56.1412ZM99.5926 37C99.1874 37 99.0216 36.7974 99.0953 36.3922L104.068 5.06404H94.3436C94.1962 5.06404 94.0673 5.00879 93.9568 4.89828C93.8463 4.78778 93.8095 4.65886 93.8463 4.51152L94.3436 1.36212C94.4172 0.993772 94.6382 0.809597 95.0066 0.809597H119.097C119.281 0.809597 119.41 0.86485 119.483 0.975355C119.557 1.04902 119.576 1.17795 119.539 1.36212L119.041 4.51152C119.005 4.65886 118.931 4.78778 118.82 4.89828C118.747 5.00879 118.618 5.06404 118.434 5.06404H108.654L103.681 36.4475C103.608 36.8158 103.405 37 103.073 37H99.5926ZM120.998 37C120.593 37 120.427 36.8158 120.501 36.4475L126.026 1.36212C126.1 0.993772 126.302 0.809597 126.634 0.809597H145.917C146.101 0.809597 146.23 0.86485 146.304 0.975355C146.414 1.04902 146.451 1.17795 146.414 1.36212L145.917 4.51152C145.88 4.65886 145.825 4.78778 145.751 4.89828C145.678 5.00879 145.549 5.06404 145.365 5.06404H130.06L128.236 16.5566H142.105C142.51 16.5566 142.676 16.7407 142.602 17.1091L142.16 20.0927C142.086 20.4611 141.902 20.6453 141.607 20.6453H127.573L125.695 32.7456H140.834C141.239 32.7456 141.405 32.9297 141.331 33.2981L140.834 36.4475C140.76 36.8158 140.576 37 140.281 37H120.998Z" fill="white"/>
<path d="M157.49 37C157.122 37 156.901 36.8158 156.827 36.4475L151.026 1.52788C150.989 1.30687 151.007 1.14111 151.081 1.03061C151.192 0.883267 151.357 0.809597 151.578 0.809597H157.104C157.472 0.809597 157.693 0.993772 157.767 1.36212L160.64 21.9161C160.861 23.4263 161.063 24.9549 161.247 26.502C161.468 28.0123 161.671 29.5409 161.855 31.088H161.966C162.592 29.5777 163.237 28.0675 163.9 26.5573C164.599 25.047 165.281 23.5368 165.944 22.0266L175.447 1.36212C175.558 1.17795 175.687 1.04902 175.834 0.975355C175.981 0.86485 176.147 0.809597 176.331 0.809597H182.133C182.317 0.809597 182.446 0.883267 182.52 1.03061C182.593 1.14111 182.575 1.28845 182.464 1.47263L165.391 36.4475C165.244 36.8158 164.986 37 164.618 37H157.49ZM182.174 37C181.696 37 181.493 36.779 181.567 36.337L187.092 1.47263C187.166 1.03061 187.387 0.809597 187.755 0.809597H192.949C193.427 0.809597 193.63 1.03061 193.556 1.47263L188.031 36.337C187.957 36.779 187.736 37 187.368 37H182.174ZM204.703 37C204.335 37 204.114 36.8158 204.04 36.4475L198.239 1.52788C198.202 1.30687 198.22 1.14111 198.294 1.03061C198.404 0.883267 198.57 0.809597 198.791 0.809597H204.316C204.685 0.809597 204.906 0.993772 204.979 1.36212L207.853 21.9161C208.074 23.4263 208.276 24.9549 208.46 26.502C208.681 28.0123 208.884 29.5409 209.068 31.088H209.179C209.805 29.5777 210.449 28.0675 211.112 26.5573C211.812 25.047 212.494 23.5368 213.157 22.0266L222.66 1.36212C222.771 1.17795 222.9 1.04902 223.047 0.975355C223.194 0.86485 223.36 0.809597 223.544 0.809597H229.346C229.53 0.809597 229.659 0.883267 229.733 1.03061C229.806 1.14111 229.788 1.28845 229.677 1.47263L212.604 36.4475C212.457 36.8158 212.199 37 211.831 37H204.703ZM222.435 37C222.214 37 222.085 36.9447 222.048 36.8342C221.974 36.7237 221.974 36.558 222.048 36.337L239.232 1.47263C239.453 1.03061 239.692 0.809597 239.95 0.809597H247.022C247.354 0.809597 247.575 1.03061 247.685 1.47263L253.929 36.337C253.966 36.5211 253.929 36.6869 253.818 36.8342C253.708 36.9447 253.542 37 253.321 37H247.63C247.262 37 247.041 36.779 246.967 36.337L243.762 14.7332C243.578 13.4072 243.394 12.0627 243.21 10.6998C243.026 9.30007 242.86 7.91876 242.713 6.55586H242.602C242.05 7.91876 241.46 9.28165 240.834 10.6445C240.245 11.9706 239.618 13.3335 238.955 14.7332L228.955 36.337C228.881 36.5211 228.771 36.6869 228.623 36.8342C228.476 36.9447 228.31 37 228.126 37H222.435ZM231.165 29.4304L233.264 24.0157H246.47L246.912 29.4304H231.165Z" fill="#70FF00"/>
</svg>
